<mxfile host="app.diagrams.net" modified="2024-05-02T15:08:27.983Z" agent="Mozilla/5.0 (Windows NT 10.0; Win64; x64) AppleWebKit/537.36 (KHTML, like Gecko) Chrome/124.0.0.0 Safari/537.36" etag="QGD2dABZX7iJkG0lDnfG" version="24.3.1" type="device">
  <diagram name="PÃ¡gina-1" id="psI0fsGS4wjXBD81JZim">
    <mxGraphModel dx="2261" dy="1949" grid="1" gridSize="10" guides="1" tooltips="1" connect="1" arrows="1" fold="1" page="1" pageScale="1" pageWidth="827" pageHeight="1169" math="0" shadow="0">
      <root>
        <mxCell id="0" />
        <mxCell id="1" parent="0" />
        <mxCell id="VjdoGSqcZPOmEABOM26l-2" value="" style="whiteSpace=wrap;html=1;aspect=fixed;" vertex="1" parent="1">
          <mxGeometry x="-30" y="-20" width="880" height="880" as="geometry" />
        </mxCell>
        <mxCell id="VjdoGSqcZPOmEABOM26l-3" value="SISTEMA GESTION NOTAS" style="text;html=1;align=center;verticalAlign=middle;whiteSpace=wrap;rounded=0;" vertex="1" parent="1">
          <mxGeometry x="252" y="-20" width="286" height="30" as="geometry" />
        </mxCell>
        <mxCell id="VjdoGSqcZPOmEABOM26l-4" value="Profesor" style="shape=umlActor;verticalLabelPosition=bottom;verticalAlign=top;html=1;outlineConnect=0;" vertex="1" parent="1">
          <mxGeometry x="-150" y="380" width="30" height="60" as="geometry" />
        </mxCell>
        <mxCell id="VjdoGSqcZPOmEABOM26l-26" style="edgeStyle=orthogonalEdgeStyle;rounded=0;orthogonalLoop=1;jettySize=auto;html=1;exitX=0.5;exitY=0.5;exitDx=0;exitDy=0;exitPerimeter=0;endArrow=none;endFill=0;" edge="1" parent="1" source="VjdoGSqcZPOmEABOM26l-5" target="VjdoGSqcZPOmEABOM26l-16">
          <mxGeometry relative="1" as="geometry" />
        </mxCell>
        <mxCell id="VjdoGSqcZPOmEABOM26l-5" value="Alumno" style="shape=umlActor;verticalLabelPosition=bottom;verticalAlign=top;html=1;outlineConnect=0;" vertex="1" parent="1">
          <mxGeometry x="930" y="385" width="30" height="60" as="geometry" />
        </mxCell>
        <mxCell id="VjdoGSqcZPOmEABOM26l-21" style="edgeStyle=orthogonalEdgeStyle;rounded=0;orthogonalLoop=1;jettySize=auto;html=1;exitX=1;exitY=0.5;exitDx=0;exitDy=0;entryX=0;entryY=0.5;entryDx=0;entryDy=0;endArrow=classic;endFill=1;dashed=1;" edge="1" parent="1" source="VjdoGSqcZPOmEABOM26l-6" target="VjdoGSqcZPOmEABOM26l-7">
          <mxGeometry relative="1" as="geometry" />
        </mxCell>
        <mxCell id="VjdoGSqcZPOmEABOM26l-6" value="Seleccionar grupo" style="ellipse;whiteSpace=wrap;html=1;" vertex="1" parent="1">
          <mxGeometry y="530" width="120" height="80" as="geometry" />
        </mxCell>
        <mxCell id="VjdoGSqcZPOmEABOM26l-22" style="edgeStyle=orthogonalEdgeStyle;rounded=0;orthogonalLoop=1;jettySize=auto;html=1;exitX=0.5;exitY=0;exitDx=0;exitDy=0;entryX=0.5;entryY=1;entryDx=0;entryDy=0;endArrow=none;endFill=0;dashed=1;startArrow=classic;startFill=1;" edge="1" parent="1" source="VjdoGSqcZPOmEABOM26l-7" target="VjdoGSqcZPOmEABOM26l-8">
          <mxGeometry relative="1" as="geometry" />
        </mxCell>
        <mxCell id="VjdoGSqcZPOmEABOM26l-7" value="Seleccionar Asignatura" style="ellipse;whiteSpace=wrap;html=1;" vertex="1" parent="1">
          <mxGeometry x="160" y="530" width="120" height="80" as="geometry" />
        </mxCell>
        <mxCell id="VjdoGSqcZPOmEABOM26l-8" value="Mostrar Lista Alumnos" style="ellipse;whiteSpace=wrap;html=1;" vertex="1" parent="1">
          <mxGeometry x="160" y="370" width="120" height="80" as="geometry" />
        </mxCell>
        <mxCell id="VjdoGSqcZPOmEABOM26l-9" value="Seleccionar Alumno" style="ellipse;whiteSpace=wrap;html=1;" vertex="1" parent="1">
          <mxGeometry x="160" y="100" width="120" height="80" as="geometry" />
        </mxCell>
        <mxCell id="VjdoGSqcZPOmEABOM26l-32" style="edgeStyle=orthogonalEdgeStyle;rounded=0;orthogonalLoop=1;jettySize=auto;html=1;exitX=0.5;exitY=1;exitDx=0;exitDy=0;endArrow=classic;endFill=1;dashed=1;" edge="1" parent="1" source="VjdoGSqcZPOmEABOM26l-10" target="VjdoGSqcZPOmEABOM26l-31">
          <mxGeometry relative="1" as="geometry" />
        </mxCell>
        <mxCell id="VjdoGSqcZPOmEABOM26l-10" value="Modificar Notas" style="ellipse;whiteSpace=wrap;html=1;" vertex="1" parent="1">
          <mxGeometry x="335" y="100" width="120" height="80" as="geometry" />
        </mxCell>
        <mxCell id="VjdoGSqcZPOmEABOM26l-11" value="Consultar Todas las Notas" style="ellipse;whiteSpace=wrap;html=1;" vertex="1" parent="1">
          <mxGeometry x="570" y="585" width="120" height="80" as="geometry" />
        </mxCell>
        <mxCell id="VjdoGSqcZPOmEABOM26l-12" value="Consultar Notas por asignatura" style="ellipse;whiteSpace=wrap;html=1;" vertex="1" parent="1">
          <mxGeometry x="570" y="170" width="120" height="80" as="geometry" />
        </mxCell>
        <mxCell id="VjdoGSqcZPOmEABOM26l-13" value="Obtener Informe" style="ellipse;whiteSpace=wrap;html=1;" vertex="1" parent="1">
          <mxGeometry x="510" y="380" width="120" height="80" as="geometry" />
        </mxCell>
        <mxCell id="VjdoGSqcZPOmEABOM26l-14" value="Obtener Informe" style="ellipse;whiteSpace=wrap;html=1;" vertex="1" parent="1">
          <mxGeometry x="10" y="170" width="120" height="80" as="geometry" />
        </mxCell>
        <mxCell id="VjdoGSqcZPOmEABOM26l-19" style="edgeStyle=orthogonalEdgeStyle;rounded=0;orthogonalLoop=1;jettySize=auto;html=1;exitX=0.5;exitY=1;exitDx=0;exitDy=0;endArrow=none;endFill=0;dashed=1;startArrow=classic;startFill=1;" edge="1" parent="1" source="VjdoGSqcZPOmEABOM26l-15" target="VjdoGSqcZPOmEABOM26l-6">
          <mxGeometry relative="1" as="geometry" />
        </mxCell>
        <mxCell id="VjdoGSqcZPOmEABOM26l-15" value="Autenticarse" style="ellipse;whiteSpace=wrap;html=1;" vertex="1" parent="1">
          <mxGeometry y="370" width="120" height="80" as="geometry" />
        </mxCell>
        <mxCell id="VjdoGSqcZPOmEABOM26l-27" style="edgeStyle=orthogonalEdgeStyle;rounded=0;orthogonalLoop=1;jettySize=auto;html=1;exitX=0.5;exitY=0;exitDx=0;exitDy=0;entryX=1;entryY=0.5;entryDx=0;entryDy=0;endArrow=none;endFill=0;dashed=1;startArrow=classic;startFill=1;" edge="1" parent="1" source="VjdoGSqcZPOmEABOM26l-16" target="VjdoGSqcZPOmEABOM26l-12">
          <mxGeometry relative="1" as="geometry" />
        </mxCell>
        <mxCell id="VjdoGSqcZPOmEABOM26l-28" style="edgeStyle=orthogonalEdgeStyle;rounded=0;orthogonalLoop=1;jettySize=auto;html=1;exitX=0.5;exitY=1;exitDx=0;exitDy=0;entryX=1;entryY=0.5;entryDx=0;entryDy=0;endArrow=none;endFill=0;dashed=1;startArrow=classic;startFill=1;" edge="1" parent="1" source="VjdoGSqcZPOmEABOM26l-16" target="VjdoGSqcZPOmEABOM26l-11">
          <mxGeometry relative="1" as="geometry" />
        </mxCell>
        <mxCell id="VjdoGSqcZPOmEABOM26l-16" value="Autenticarse" style="ellipse;whiteSpace=wrap;html=1;" vertex="1" parent="1">
          <mxGeometry x="690" y="375" width="120" height="80" as="geometry" />
        </mxCell>
        <mxCell id="VjdoGSqcZPOmEABOM26l-31" value="Notas" style="ellipse;whiteSpace=wrap;html=1;" vertex="1" parent="1">
          <mxGeometry x="335" y="385" width="120" height="80" as="geometry" />
        </mxCell>
        <mxCell id="VjdoGSqcZPOmEABOM26l-33" value="" style="endArrow=classic;html=1;rounded=0;exitX=0.5;exitY=1;exitDx=0;exitDy=0;entryX=0.5;entryY=0;entryDx=0;entryDy=0;dashed=1;endFill=1;startArrow=none;startFill=0;" edge="1" parent="1" source="VjdoGSqcZPOmEABOM26l-14" target="VjdoGSqcZPOmEABOM26l-8">
          <mxGeometry width="50" height="50" relative="1" as="geometry">
            <mxPoint x="380" y="560" as="sourcePoint" />
            <mxPoint x="430" y="510" as="targetPoint" />
          </mxGeometry>
        </mxCell>
        <mxCell id="VjdoGSqcZPOmEABOM26l-34" value="" style="endArrow=none;html=1;rounded=0;entryX=0.5;entryY=1;entryDx=0;entryDy=0;dashed=1;startArrow=classic;startFill=1;" edge="1" parent="1" target="VjdoGSqcZPOmEABOM26l-9">
          <mxGeometry width="50" height="50" relative="1" as="geometry">
            <mxPoint x="220" y="370" as="sourcePoint" />
            <mxPoint x="300" y="280" as="targetPoint" />
          </mxGeometry>
        </mxCell>
        <mxCell id="VjdoGSqcZPOmEABOM26l-35" value="" style="endArrow=none;html=1;rounded=0;entryX=0;entryY=0.5;entryDx=0;entryDy=0;exitX=1;exitY=0.5;exitDx=0;exitDy=0;dashed=1;startArrow=classic;startFill=1;" edge="1" parent="1" source="VjdoGSqcZPOmEABOM26l-9" target="VjdoGSqcZPOmEABOM26l-10">
          <mxGeometry width="50" height="50" relative="1" as="geometry">
            <mxPoint x="220" y="120" as="sourcePoint" />
            <mxPoint x="270" y="70" as="targetPoint" />
          </mxGeometry>
        </mxCell>
        <mxCell id="VjdoGSqcZPOmEABOM26l-36" value="" style="endArrow=classic;html=1;rounded=0;entryX=0;entryY=0.5;entryDx=0;entryDy=0;exitX=1;exitY=0.5;exitDx=0;exitDy=0;dashed=1;endFill=1;" edge="1" parent="1" source="VjdoGSqcZPOmEABOM26l-31" target="VjdoGSqcZPOmEABOM26l-12">
          <mxGeometry width="50" height="50" relative="1" as="geometry">
            <mxPoint x="460" y="320" as="sourcePoint" />
            <mxPoint x="510" y="270" as="targetPoint" />
          </mxGeometry>
        </mxCell>
        <mxCell id="VjdoGSqcZPOmEABOM26l-37" value="" style="endArrow=classic;html=1;rounded=0;exitX=1;exitY=0.5;exitDx=0;exitDy=0;entryX=0;entryY=0.5;entryDx=0;entryDy=0;dashed=1;endFill=1;" edge="1" parent="1" source="VjdoGSqcZPOmEABOM26l-31" target="VjdoGSqcZPOmEABOM26l-11">
          <mxGeometry width="50" height="50" relative="1" as="geometry">
            <mxPoint x="400" y="610" as="sourcePoint" />
            <mxPoint x="450" y="560" as="targetPoint" />
          </mxGeometry>
        </mxCell>
        <mxCell id="VjdoGSqcZPOmEABOM26l-39" value="" style="endArrow=none;html=1;rounded=0;exitX=0.5;exitY=0.5;exitDx=0;exitDy=0;exitPerimeter=0;entryX=0;entryY=0.5;entryDx=0;entryDy=0;" edge="1" parent="1" source="VjdoGSqcZPOmEABOM26l-4" target="VjdoGSqcZPOmEABOM26l-15">
          <mxGeometry width="50" height="50" relative="1" as="geometry">
            <mxPoint x="380" y="370" as="sourcePoint" />
            <mxPoint x="430" y="320" as="targetPoint" />
          </mxGeometry>
        </mxCell>
        <mxCell id="VjdoGSqcZPOmEABOM26l-40" value="" style="endArrow=none;html=1;rounded=0;entryX=0.5;entryY=1;entryDx=0;entryDy=0;exitX=0.5;exitY=0;exitDx=0;exitDy=0;dashed=1;endFill=0;startArrow=classic;startFill=1;" edge="1" parent="1" source="VjdoGSqcZPOmEABOM26l-13" target="VjdoGSqcZPOmEABOM26l-12">
          <mxGeometry width="50" height="50" relative="1" as="geometry">
            <mxPoint x="380" y="650" as="sourcePoint" />
            <mxPoint x="430" y="600" as="targetPoint" />
          </mxGeometry>
        </mxCell>
        <mxCell id="VjdoGSqcZPOmEABOM26l-41" value="" style="endArrow=classic;html=1;rounded=0;exitX=0.5;exitY=0;exitDx=0;exitDy=0;entryX=0.5;entryY=1;entryDx=0;entryDy=0;dashed=1;startArrow=none;startFill=0;endFill=1;" edge="1" parent="1" source="VjdoGSqcZPOmEABOM26l-11" target="VjdoGSqcZPOmEABOM26l-13">
          <mxGeometry width="50" height="50" relative="1" as="geometry">
            <mxPoint x="380" y="660" as="sourcePoint" />
            <mxPoint x="430" y="610" as="targetPoint" />
          </mxGeometry>
        </mxCell>
        <mxCell id="VjdoGSqcZPOmEABOM26l-42" value="&amp;lt;&amp;lt;include&amp;gt;&amp;gt;" style="text;html=1;align=center;verticalAlign=middle;whiteSpace=wrap;rounded=0;" vertex="1" parent="1">
          <mxGeometry x="450" y="260" width="60" height="30" as="geometry" />
        </mxCell>
        <mxCell id="VjdoGSqcZPOmEABOM26l-44" value="&amp;lt;&amp;lt;include&amp;gt;&amp;gt;" style="text;html=1;align=center;verticalAlign=middle;whiteSpace=wrap;rounded=0;" vertex="1" parent="1">
          <mxGeometry x="110" y="510" width="60" height="30" as="geometry" />
        </mxCell>
        <mxCell id="VjdoGSqcZPOmEABOM26l-45" value="&amp;lt;&amp;lt;extends&amp;gt;&amp;gt;" style="text;html=1;align=center;verticalAlign=middle;whiteSpace=wrap;rounded=0;" vertex="1" parent="1">
          <mxGeometry x="30" y="270" width="60" height="30" as="geometry" />
        </mxCell>
        <mxCell id="VjdoGSqcZPOmEABOM26l-46" value="&amp;lt;&amp;lt;extends&amp;gt;&amp;gt;" style="text;html=1;align=center;verticalAlign=middle;whiteSpace=wrap;rounded=0;" vertex="1" parent="1">
          <mxGeometry x="-10" y="465" width="60" height="30" as="geometry" />
        </mxCell>
        <mxCell id="VjdoGSqcZPOmEABOM26l-47" value="&amp;lt;&amp;lt;extends&amp;gt;&amp;gt;" style="text;html=1;align=center;verticalAlign=middle;whiteSpace=wrap;rounded=0;" vertex="1" parent="1">
          <mxGeometry x="240" y="470" width="60" height="30" as="geometry" />
        </mxCell>
        <mxCell id="VjdoGSqcZPOmEABOM26l-48" value="&amp;lt;&amp;lt;extends&amp;gt;&amp;gt;" style="text;html=1;align=center;verticalAlign=middle;whiteSpace=wrap;rounded=0;" vertex="1" parent="1">
          <mxGeometry x="240" y="250" width="60" height="30" as="geometry" />
        </mxCell>
        <mxCell id="VjdoGSqcZPOmEABOM26l-49" value="&amp;lt;&amp;lt;extends&amp;gt;&amp;gt;" style="text;html=1;align=center;verticalAlign=middle;whiteSpace=wrap;rounded=0;" vertex="1" parent="1">
          <mxGeometry x="280" y="80" width="60" height="30" as="geometry" />
        </mxCell>
        <mxCell id="VjdoGSqcZPOmEABOM26l-50" value="&amp;lt;&amp;lt;include&amp;gt;&amp;gt;" style="text;html=1;align=center;verticalAlign=middle;whiteSpace=wrap;rounded=0;" vertex="1" parent="1">
          <mxGeometry x="320" y="270" width="60" height="30" as="geometry" />
        </mxCell>
        <mxCell id="VjdoGSqcZPOmEABOM26l-51" value="&amp;lt;&amp;lt;extends&amp;gt;&amp;gt;" style="text;html=1;align=center;verticalAlign=middle;whiteSpace=wrap;rounded=0;" vertex="1" parent="1">
          <mxGeometry x="767" y="520" width="60" height="30" as="geometry" />
        </mxCell>
        <mxCell id="VjdoGSqcZPOmEABOM26l-52" value="&amp;lt;&amp;lt;extends&amp;gt;&amp;gt;" style="text;html=1;align=center;verticalAlign=middle;whiteSpace=wrap;rounded=0;" vertex="1" parent="1">
          <mxGeometry x="767" y="260" width="60" height="30" as="geometry" />
        </mxCell>
        <mxCell id="VjdoGSqcZPOmEABOM26l-53" value="&amp;lt;&amp;lt;extends&amp;gt;&amp;gt;" style="text;html=1;align=center;verticalAlign=middle;whiteSpace=wrap;rounded=0;" vertex="1" parent="1">
          <mxGeometry x="620" y="310" width="60" height="30" as="geometry" />
        </mxCell>
        <mxCell id="VjdoGSqcZPOmEABOM26l-54" value="&amp;lt;&amp;lt;extends&amp;gt;&amp;gt;" style="text;html=1;align=center;verticalAlign=middle;whiteSpace=wrap;rounded=0;" vertex="1" parent="1">
          <mxGeometry x="610" y="490" width="60" height="30" as="geometry" />
        </mxCell>
        <mxCell id="VjdoGSqcZPOmEABOM26l-55" value="&amp;lt;&amp;lt;include&amp;gt;&amp;gt;" style="text;html=1;align=center;verticalAlign=middle;whiteSpace=wrap;rounded=0;" vertex="1" parent="1">
          <mxGeometry x="440" y="520" width="60" height="30" as="geometry" />
        </mxCell>
      </root>
    </mxGraphModel>
  </diagram>
</mxfile>
